# xmcd CD database file generated by Grip 2.96
# 
# Track frame offsets:
#       150
#       32640
#       57030
#       70442
#       105297
#       166305
#       208395
#       230252
#       250267
#       286645
#       299145
#       305432
#       311627
# 
# Disc length: 4342 seconds
# 
# Revision: 0
# Processed by: cddbd v1.4PL0 Copyright (c) Steve Scherf et al.
# Submitted via: Grip 2.96
# 
DISCID=bb10f40d
DTITLE=Rob and Adam - Rhytm&Soul
DYEAR=1900
DGENRE=
TTITLE0=I got you (I feel good)
TTITLE1=Got to be real - Get up offa that thing
TTITLE2=I want you back
TTITLE3=Groove Line
TTITLE4=Mister Magic - Jamaica Funk
TTITLE5=Do it to the Music - Good times
TTITLE6=Steadfast
TTITLE7=New York at Night
TTITLE8=Hell's Kitchen Salsa
TTITLE9=Here's the Bucket
TTITLE10=Bucket Solo in Japan
TTITLE11=Bucket Solo in Sweden
TTITLE12=Fast Track
EXTD=
EXTT0=
EXTT1=
EXTT2=
EXTT3=
EXTT4=
EXTT5=
EXTT6=
EXTT7=
EXTT8=
EXTT9=
EXTT10=
EXTT11=
EXTT12=
PLAYORDER=
